<?xml version="1.0" encoding="UTF-8"?>
<svg width="61px" height="31px" viewBox="0 0 61 31" version="1.1" xmlns="http://www.w3.org/2000/svg" xmlns:xlink="http://www.w3.org/1999/xlink">
    <!-- Generator: Sketch 46.2 (44496) - http://www.bohemiancoding.com/sketch -->
    <title>logo_white</title>
    <desc>Created with Sketch.</desc>
    <defs></defs>
    <g id="Page-1" stroke="none" stroke-width="1" fill="none" fill-rule="evenodd">
        <g id="sandia" transform="translate(-803.000000, -4419.000000)" fill="#FFFFFF">
            <g id="logo" transform="translate(803.000000, 4419.000000)">
                <path d="M0.097986448,-1.90036875e-12 C0.0330780743,0.759102441 0,1.52659023 0,2.30129737 C0,18.0417899 13.6553151,30.8019802 30.5,30.8019802 C47.3446849,30.8019802 61,18.0417899 61,2.30129737 C61,1.52659023 60.9669219,0.759102441 60.9020136,-1.90125693e-12 L59.4777762,2.84217094e-14 C59.5463937,0.758718678 59.5813953,1.52625364 59.5813953,2.30129737 C59.5813953,17.2379689 46.5813993,29.3857972 30.5,29.3857972 C14.4186007,29.3857972 1.41860465,17.2379689 1.41860465,2.30129737 C1.41860465,1.52625364 1.45360626,0.758718678 1.52222378,-2.51576537e-12 L0.097986448,2.84217094e-14 Z" id="Combined-Shape" fill-rule="nonzero"></path>
                <path d="M2.5243842,1.10134124e-13 L58.4756158,1.10134124e-13 C58.5474748,0.760078716 58.5841584,1.52934806 58.5841584,2.30637376 C58.5841584,16.6717982 46.0458658,28.3861386 30.5,28.3861386 C14.9541342,28.3861386 2.41584158,16.6717982 2.41584158,2.30637376 C2.41584158,1.52934806 2.45252521,0.760078716 2.5243842,-3.05555581e-12 Z M9.16006601,6.03662377 C9.54921714,6.03662377 9.86468647,5.71845112 9.86468647,5.32596526 C9.86468647,4.9334794 9.54921714,3.83715861 9.16006601,3.83715861 C8.77091487,3.83715861 8.45544554,4.9334794 8.45544554,5.32596526 C8.45544554,5.71845112 8.77091487,6.03662377 9.16006601,6.03662377 Z M14.0924092,10.6559041 C14.4815604,10.6559041 14.7970297,10.3377314 14.7970297,9.94524559 C14.7970297,9.55275973 14.4815604,8.45643894 14.0924092,8.45643894 C13.7032581,8.45643894 13.3877888,9.55275973 13.3877888,9.94524559 C13.3877888,10.3377314 13.7032581,10.6559041 14.0924092,10.6559041 Z M20.7863036,8.52392857 C21.1754548,8.52392857 21.4909241,8.20575591 21.4909241,7.81327005 C21.4909241,7.42078419 21.1754548,6.3244634 20.7863036,6.3244634 C20.3971525,6.3244634 20.0816832,7.42078419 20.0816832,7.81327005 C20.0816832,8.20575591 20.3971525,8.52392857 20.7863036,8.52392857 Z M14.0924092,17.40716 C14.4815604,17.40716 14.7970297,17.0889873 14.7970297,16.6965015 C14.7970297,16.3040156 14.4815604,15.2076948 14.0924092,15.2076948 C13.7032581,15.2076948 13.3877888,16.3040156 13.3877888,16.6965015 C13.3877888,17.0889873 13.7032581,17.40716 14.0924092,17.40716 Z M22.1955446,18.828477 C22.5846957,18.828477 22.900165,18.5103043 22.900165,18.1178185 C22.900165,17.7253326 22.5846957,16.6290118 22.1955446,16.6290118 C21.8063934,16.6290118 21.4909241,17.7253326 21.4909241,18.1178185 C21.4909241,18.5103043 21.8063934,18.828477 22.1955446,18.828477 Z M25.7186469,24.1584158 C26.107798,24.1584158 26.4232673,23.8402432 26.4232673,23.4477573 C26.4232673,23.0552715 26.107798,21.9589507 25.7186469,21.9589507 C25.3294957,21.9589507 25.0140264,23.0552715 25.0140264,23.4477573 C25.0140264,23.8402432 25.3294957,24.1584158 25.7186469,24.1584158 Z M27.480198,11.7218919 C27.8693492,11.7218919 28.1848185,11.4037192 28.1848185,11.0112334 C28.1848185,10.6187475 27.8693492,9.52242671 27.480198,9.52242671 C27.0910469,9.52242671 26.7755776,10.6187475 26.7755776,11.0112334 C26.7755776,11.4037192 27.0910469,11.7218919 27.480198,11.7218919 Z M32.4125413,8.52392857 C32.8016924,8.52392857 33.1171617,8.20575591 33.1171617,7.81327005 C33.1171617,7.42078419 32.8016924,6.3244634 32.4125413,6.3244634 C32.0233901,6.3244634 31.7079208,7.42078419 31.7079208,7.81327005 C31.7079208,8.20575591 32.0233901,8.52392857 32.4125413,8.52392857 Z M35.9356436,14.9198552 C36.3247947,14.9198552 36.640264,14.6016825 36.640264,14.2091967 C36.640264,13.8167108 36.3247947,12.72039 35.9356436,12.72039 C35.5464924,12.72039 35.2310231,13.8167108 35.2310231,14.2091967 C35.2310231,14.6016825 35.5464924,14.9198552 35.9356436,14.9198552 Z M40.5156766,20.6051233 C40.9048277,20.6051233 41.220297,20.2869506 41.220297,19.8944648 C41.220297,19.5019789 40.9048277,18.4056581 40.5156766,18.4056581 C40.1265254,18.4056581 39.8110561,19.5019789 39.8110561,19.8944648 C39.8110561,20.2869506 40.1265254,20.6051233 40.5156766,20.6051233 Z M31.7079208,19.8944648 C32.0970719,19.8944648 32.4125413,19.5762921 32.4125413,19.1838063 C32.4125413,18.7913204 32.0970719,17.6949996 31.7079208,17.6949996 C31.3187697,17.6949996 31.0033003,18.7913204 31.0033003,19.1838063 C31.0033003,19.5762921 31.3187697,19.8944648 31.7079208,19.8944648 Z M40.1633663,9.94524559 C40.5525175,9.94524559 40.8679868,9.62707294 40.8679868,9.23458708 C40.8679868,8.84210122 40.5525175,7.74578043 40.1633663,7.74578043 C39.7742152,7.74578043 39.4587459,8.84210122 39.4587459,9.23458708 C39.4587459,9.62707294 39.7742152,9.94524559 40.1633663,9.94524559 Z M45.0957096,4.61530675 C45.4848607,4.61530675 45.80033,4.29713409 45.80033,3.90464823 C45.80033,3.51216238 45.4848607,2.41584158 45.0957096,2.41584158 C44.7065584,2.41584158 44.3910891,3.51216238 44.3910891,3.90464823 C44.3910891,4.29713409 44.7065584,4.61530675 45.0957096,4.61530675 Z M46.8572607,17.0518307 C47.2464119,17.0518307 47.5618812,16.7336581 47.5618812,16.3411722 C47.5618812,15.9486863 47.2464119,14.8523656 46.8572607,14.8523656 C46.4681096,14.8523656 46.1526403,15.9486863 46.1526403,16.3411722 C46.1526403,16.7336581 46.4681096,17.0518307 46.8572607,17.0518307 Z M50.0280528,9.23458708 C50.4172039,9.23458708 50.7326733,8.91641442 50.7326733,8.52392857 C50.7326733,8.13144271 50.4172039,7.03512192 50.0280528,7.03512192 C49.6389017,7.03512192 49.3234323,8.13144271 49.3234323,8.52392857 C49.3234323,8.91641442 49.6389017,9.23458708 50.0280528,9.23458708 Z" id="Combined-Shape"></path>
            </g>
        </g>
    </g>
</svg>